<?xml version="1.0" encoding="utf-8"?>
<svg version="1.1" id="Layer_1" xmlns="http://www.w3.org/2000/svg" xmlns:xlink="http://www.w3.org/1999/xlink" x="0px" y="0px"
	 viewBox="0 0 24 24" style="enable-background:new 0 0 24 24;" xml:space="preserve">
<g>
	<circle style="fill:#E8E8E8" cx="12" cy="12" r="12"/>
	<path style="fill:#C0BFBE" d="M12,24c4.2,0,7.9-2.1,10-5.4v-6.2c0-0.5-0.4-0.9-0.8-0.9h-5V9.9c0-0.5-0.4-0.9-0.8-0.9H8.7
	C8.2,9,7.8,9.4,7.8,9.9v1.7h-5C2.4,11.6,2,12,2,12.5v6.2C4.1,21.9,7.8,24,12,24z M13.7,21.7V22v0.6h-3.3V22v-0.3v-1.5h3.3V21.7z
	 M9.5,10.7h5v0.9h-5V10.7z"/>
</g>
</svg>
